<svg xmlns="http://www.w3.org/2000/svg" viewBox="0 0 40 40" fill="none" role="img" aria-label="Rabby">
  <rect width="40" height="40" rx="8" fill="#FFFFFF"/>
  <path d="M29.2 25.1C28.5 24.3 27.6 23.8 26.8 23.4C26.1 23.1 25.4 22.9 24.7 22.8C25.4 21.8 25.8 20.6 25.8 19.3C25.8 16.5 23.7 14.2 21 13.9C21.7 12.8 22.8 11.2 23.7 9.8C23.9 9.5 23.8 9.1 23.4 9C22.6 8.7 20.9 8.2 19.1 9.4C17.5 10.5 16.6 12.3 16.2 13.9C15.8 14 15.4 14.1 15 14.3C13.8 14.8 12.9 15.8 12.4 17C11.9 18.2 11.9 19.5 12.4 20.7C12.9 21.9 13.8 22.8 15 23.3C14.7 24.2 14.5 25.1 14.4 26C14.2 28.1 14.7 29.5 15.3 30.3C15.6 30.7 16.2 30.8 16.6 30.5L18.7 29.1C19.7 29.5 20.8 29.7 22 29.7C24.5 29.7 26.8 28.8 28.4 27.2C29.4 26.2 29.6 25.5 29.2 25.1Z" fill="url(#rabbyGrad)"/>
  <defs>
    <linearGradient id="rabbyGrad" x1="14" y1="9" x2="28" y2="30" gradientUnits="userSpaceOnUse">
      <stop stop-color="#8DA0FF"/>
      <stop offset="1" stop-color="#6F83FF"/>
    </linearGradient>
  </defs>
</svg>
